<svg t="1740042349205" class="icon" viewBox="0 0 1024 1024" version="1.1" xmlns="http://www.w3.org/2000/svg" p-id="2980" width="256" height="256"><path d="M665.6 174.933333l17.066667-12.8c72.533333-53.333333 198.4-96 311.466666-76.8 12.8 2.133333 25.6 12.8 27.733334 25.6 4.266667 14.933333 0 29.866667-10.666667 38.4-46.933333 40.533333-128 123.733333-157.866667 224l-10.666666 40.533334-177.066667-238.933334zM170.666667 375.466667C140.8 275.2 59.733333 192 12.8 151.466667 2.133333 142.933333-2.133333 128 2.133333 113.066667 6.4 98.133333 17.066667 89.6 29.866667 85.333333 142.933333 66.133333 268.8 108.8 341.333333 162.133333l17.066667 12.8-177.066667 238.933334-10.666666-38.4z" fill="#E7B95D" p-id="2981"></path><path d="M631.466667 96c4.266667-29.866667 19.2-64 55.466666-96 0 0-57.6 23.466667-91.733333 87.466667-10.666667-2.133333-21.333333-4.266667-32-4.266667 6.4-25.6 21.333333-53.333333 51.2-78.933333 0 0-51.2 21.333333-85.333333 76.8h-36.266667c8.533333-23.466667 23.466667-49.066667 51.2-74.666667 0 0-51.2 21.333333-85.333333 76.8l-38.4 6.4c6.4-25.6 21.333333-53.333333 51.2-81.066667 0 0-59.733333 25.6-93.866667 91.733334C168.533333 166.4 14.933333 373.333333 14.933333 578.133333 14.933333 823.466667 236.8 1024 512 1024s497.066667-200.533333 497.066667-445.866667c0-209.066667-160-422.4-377.6-482.133333" fill="#FFCC67" p-id="2982"></path><path d="M915.2 838.4C823.466667 951.466667 678.4 1024 512 1024c-166.4 0-311.466667-72.533333-403.2-183.466667 14.933333-23.466667 34.133333-44.8 53.333333-61.866666 32-27.733333 68.266667-49.066667 106.666667-66.133334 78.933333-34.133333 164.266667-185.6 194.133333-298.666666 6.4-23.466667 25.6-38.4 46.933334-38.4 21.333333 0 40.533333 14.933333 46.933333 38.4 29.866667 113.066667 115.2 264.533333 194.133333 298.666666 38.4 17.066667 74.666667 38.4 106.666667 66.133334 21.333333 14.933333 42.666667 36.266667 57.6 59.733333" fill="#E7B95D" p-id="2983"></path><path d="M563.2 610.133333h-104.533333c-42.666667 0-66.133333 53.333333-42.666667 89.6 46.933333 68.266667 140.8 68.266667 187.733333 0 27.733333-36.266667 2.133333-89.6-40.533333-89.6M686.933333 296.533333c81.066667-21.333333 147.2 44.8 147.2 44.8-72.533333-110.933333-147.2-44.8-147.2-44.8M337.066667 296.533333C256 275.2 189.866667 341.333333 189.866667 341.333333c72.533333-110.933333 147.2-44.8 147.2-44.8" fill="#666766" p-id="2984"></path><path d="M629.333333 384c17.066667 96 78.933333 119.466667 132.266667 119.466667s85.333333-53.333333 72.533333-119.466667h-204.8z" fill="#FFFFFF" p-id="2985"></path><path d="M797.866667 398.933333c0 32-25.6 59.733333-57.6 59.733334-32 0-59.733333-25.6-59.733334-59.733334 0-4.266667 0-10.666667 2.133334-14.933333h113.066666c2.133333 4.266667 2.133333 8.533333 2.133334 14.933333" fill="#666766" p-id="2986"></path><path d="M614.4 384h236.8c-53.333333-29.866667-236.8 0-236.8 0" fill="#E7B95D" p-id="2987"></path><path d="M394.666667 384c-17.066667 96-78.933333 119.466667-132.266667 119.466667-55.466667 0-85.333333-53.333333-72.533333-119.466667h204.8z" fill="#FFFFFF" p-id="2988"></path><path d="M226.133333 398.933333c0 32 25.6 59.733333 57.6 59.733334 32 0 59.733333-25.6 59.733334-59.733334 0-4.266667 0-10.666667-2.133334-14.933333h-113.066666c-2.133333 4.266667-2.133333 8.533333-2.133334 14.933333" fill="#666766" p-id="2989"></path><path d="M409.6 384H172.8c53.333333-29.866667 236.8 0 236.8 0" fill="#E7B95D" p-id="2990"></path><path d="M706.133333 930.133333c-57.6-34.133333-123.733333-51.2-194.133333-51.2s-136.533333 19.2-194.133333 51.2c40.533333-66.133333 113.066667-110.933333 194.133333-110.933333 83.2 0 155.733333 44.8 194.133333 110.933333" fill="#666766" p-id="2991"></path></svg>