<svg t="1744180872149" class="icon" viewBox="0 0 1024 1024" version="1.1" xmlns="http://www.w3.org/2000/svg" p-id="5149" width="256" height="256"><path d="M669.9 83l0.3-0.3c25-25 65.5-25 90.4 0l180.7 180.7 0.3 0.3c24.8 25.1 24.6 65.6-0.6 90.4L760.3 532.5c-25 24.7-65.3 24.6-90.1-0.3L491.8 353.8c-24.9-24.9-25-65.1-0.3-90.1L669.9 83zM64 164.2c0-35.3 28.6-63.9 63.9-63.9h255c35.3 0 63.9 28.6 63.9 63.9v255c0 35.3-28.6 63.9-63.9 63.9h-255c-35.3 0-63.9-28.6-63.9-63.9v-255z m540.8 412.9h255c35.3 0 63.9 28.6 63.9 63.9v255c0 35.3-28.6 63.9-63.9 63.9h-255c-35.3 0-63.9-28.6-63.9-63.9V641c0-35.2 28.6-63.9 63.9-63.9z m-476.9 0h255c35.3 0 63.9 28.6 63.9 63.9v255c0 35.3-28.6 63.9-63.9 63.9h-255c-35.3 0-63.9-28.6-63.9-63.9V641c0-35.2 28.6-63.9 63.9-63.9z" fill="#1296db" p-id="5150"></path></svg><svg t="1744180872149" class="icon" viewBox="0 0 1024 1024" version="1.1" xmlns="http://www.w3.org/2000/svg" p-id="5149" width="256" height="256"><path d="M669.9 83l0.3-0.3c25-25 65.5-25 90.4 0l180.7 180.7 0.3 0.3c24.8 25.1 24.6 65.6-0.6 90.4L760.3 532.5c-25 24.7-65.3 24.6-90.1-0.3L491.8 353.8c-24.9-24.9-25-65.1-0.3-90.1L669.9 83zM64 164.2c0-35.3 28.6-63.9 63.9-63.9h255c35.3 0 63.9 28.6 63.9 63.9v255c0 35.3-28.6 63.9-63.9 63.9h-255c-35.3 0-63.9-28.6-63.9-63.9v-255z m540.8 412.9h255c35.3 0 63.9 28.6 63.9 63.9v255c0 35.3-28.6 63.9-63.9 63.9h-255c-35.3 0-63.9-28.6-63.9-63.9V641c0-35.2 28.6-63.9 63.9-63.9z m-476.9 0h255c35.3 0 63.9 28.6 63.9 63.9v255c0 35.3-28.6 63.9-63.9 63.9h-255c-35.3 0-63.9-28.6-63.9-63.9V641c0-35.2 28.6-63.9 63.9-63.9z" fill="#1296db" p-id="5150"></path></svg>